<?xml version="1.0" encoding="UTF-8" standalone="no"?>
<svg width="419px" height="416px" viewBox="0 0 419 416" version="1.1" xmlns="http://www.w3.org/2000/svg" xmlns:xlink="http://www.w3.org/1999/xlink">
    <!-- Generator: Sketch 39.1 (31720) - http://www.bohemiancoding.com/sketch -->
    <title>Group</title>
    <desc>Created with Sketch.</desc>
    <defs></defs>
    <g id="Page-1" stroke="none" stroke-width="1" fill="none" fill-rule="evenodd">
        <g id="Portfolio@2x" transform="translate(-878.000000, -82.000000)">
            <g id="Group" transform="translate(878.000000, 82.000000)">
                <path d="M-3.41060513e-13,207.564291 C-3.41060513e-13,337.291973 77.7679627,415.128583 207.381234,415.128583 C336.994505,415.128583 414.762468,311.346437 414.762468,207.564291 C440.685122,77.8366093 336.994505,-2.27373675e-13 207.381234,-2.27373675e-13 C77.7679627,-2.27373675e-13 -3.41060513e-13,77.8366093 -3.41060513e-13,207.564291 Z" id="Path" fill="#0C50BF" transform="translate(209.380664, 207.564291) rotate(-180.000000) translate(-209.380664, -207.564291) "></path>
                <g id="noun_286607_cc" transform="translate(50.000000, 64.000000)" fill="#FFFFFF">
                    <path d="M168.502128,0 C165.964894,0 164.442553,2.03157895 164.442553,4.06315789 C164.442553,6.60263158 166.47234,8.12631579 168.502128,8.12631579 C170.531915,8.12631579 172.561702,6.60263158 172.561702,4.06315789 C172.561702,2.03157895 171.039362,0 168.502128,0 L168.502128,0 L168.502128,0 Z M185.247872,0 C182.710638,0 181.188298,2.03157895 181.188298,4.06315789 C181.188298,6.60263158 183.218085,8.12631579 185.247872,8.12631579 C187.27766,8.12631579 189.307447,6.60263158 189.307447,4.06315789 C189.307447,2.03157895 187.27766,0 185.247872,0 L185.247872,0 L185.247872,0 Z M185.247872,16.7605263 C182.710638,16.7605263 181.188298,18.7921053 181.188298,20.8236842 C181.188298,23.3631579 183.218085,24.8868421 185.247872,24.8868421 C187.27766,24.8868421 189.307447,22.8552632 189.307447,20.8236842 C189.307447,18.2842105 187.27766,16.7605263 185.247872,16.7605263 L185.247872,16.7605263 L185.247872,16.7605263 Z M201.48617,16.7605263 C199.456383,16.7605263 197.426596,18.7921053 197.426596,20.8236842 C197.426596,23.3631579 199.456383,24.8868421 201.48617,24.8868421 C204.023404,24.8868421 206.053191,22.8552632 206.053191,20.8236842 C205.545745,18.2842105 203.515957,16.7605263 201.48617,16.7605263 L201.48617,16.7605263 L201.48617,16.7605263 Z M197.426596,37.0763158 C197.426596,39.6157895 199.456383,41.1394737 201.48617,41.1394737 C204.023404,41.1394737 206.053191,39.1078947 206.053191,37.0763158 C205.545745,34.5368421 203.515957,33.0131579 201.48617,33.0131579 C199.456383,33.0131579 197.426596,35.0447368 197.426596,37.0763158 Z M217.724468,33.0131579 C215.187234,33.0131579 213.664894,35.0447368 213.664894,37.0763158 C213.664894,39.6157895 215.187234,41.1394737 217.724468,41.1394737 C220.261702,41.1394737 221.784043,39.1078947 221.784043,37.0763158 C221.784043,34.5368421 220.261702,33.0131579 217.724468,33.0131579 L217.724468,33.0131579 L217.724468,33.0131579 Z M233.962766,33.0131579 C231.425532,33.0131579 229.903191,35.0447368 229.903191,37.0763158 C229.903191,39.6157895 231.425532,41.1394737 233.962766,41.1394737 C236.5,41.1394737 238.02234,39.1078947 238.02234,37.0763158 C238.529787,34.5368421 236.5,33.0131579 233.962766,33.0131579 L233.962766,33.0131579 L233.962766,33.0131579 Z M217.724468,49.2657895 C215.187234,49.2657895 213.664894,50.7894737 213.664894,53.3289474 C213.664894,55.8684211 215.187234,57.3921053 217.724468,57.3921053 C220.261702,57.3921053 221.784043,55.3605263 221.784043,53.3289474 C221.784043,51.2973684 220.261702,49.2657895 217.724468,49.2657895 L217.724468,49.2657895 L217.724468,49.2657895 Z M233.962766,49.2657895 C231.425532,49.2657895 229.903191,50.7894737 229.903191,53.3289474 C229.903191,55.8684211 231.425532,57.3921053 233.962766,57.3921053 C236.5,57.3921053 238.02234,55.3605263 238.02234,53.3289474 C238.02234,51.2973684 236.5,49.2657895 233.962766,49.2657895 L233.962766,49.2657895 L233.962766,49.2657895 Z M250.708511,49.2657895 C248.171277,49.2657895 246.648936,50.7894737 246.648936,53.3289474 C246.648936,55.8684211 248.678723,57.3921053 250.708511,57.3921053 C252.738298,57.3921053 254.768085,55.3605263 254.768085,53.3289474 C254.768085,51.2973684 252.738298,49.2657895 250.708511,49.2657895 L250.708511,49.2657895 L250.708511,49.2657895 Z M283.185106,65.5184211 C280.647872,65.5184211 279.125532,67.55 279.125532,69.5815789 C279.125532,72.1210526 280.647872,73.6447368 283.185106,73.6447368 C285.72234,73.6447368 287.244681,72.1210526 287.244681,69.5815789 C287.752128,67.55 285.72234,65.5184211 283.185106,65.5184211 L283.185106,65.5184211 L283.185106,65.5184211 Z M299.930851,65.5184211 C297.393617,65.5184211 295.871277,67.55 295.871277,69.5815789 C295.871277,72.1210526 297.901064,73.6447368 299.930851,73.6447368 C301.960638,73.6447368 303.990426,72.1210526 303.990426,69.5815789 C303.990426,67.55 301.960638,65.5184211 299.930851,65.5184211 L299.930851,65.5184211 L299.930851,65.5184211 Z M316.169149,65.5184211 C313.631915,65.5184211 311.602128,67.55 311.602128,69.5815789 C311.602128,72.1210526 313.631915,73.6447368 316.169149,73.6447368 C318.198936,73.6447368 320.228723,72.1210526 320.228723,69.5815789 C320.228723,67.55 318.198936,65.5184211 316.169149,65.5184211 L316.169149,65.5184211 L316.169149,65.5184211 Z M217.724468,66.0263158 C215.187234,66.0263158 213.664894,67.55 213.664894,70.0894737 C213.664894,72.6289474 215.187234,74.1526316 217.724468,74.1526316 C220.261702,74.1526316 221.784043,72.1210526 221.784043,70.0894737 C221.784043,67.55 220.261702,66.0263158 217.724468,66.0263158 L217.724468,66.0263158 L217.724468,66.0263158 Z M250.708511,66.0263158 C248.171277,66.0263158 246.648936,67.55 246.648936,70.0894737 C246.648936,72.6289474 248.678723,74.1526316 250.708511,74.1526316 C252.738298,74.1526316 254.768085,72.1210526 254.768085,70.0894737 C254.768085,67.55 252.738298,66.0263158 250.708511,66.0263158 L250.708511,66.0263158 L250.708511,66.0263158 Z M266.946809,66.0263158 C264.917021,66.0263158 262.887234,67.55 262.887234,70.0894737 C262.887234,72.6289474 264.917021,74.1526316 266.946809,74.1526316 C269.484043,74.1526316 271.006383,72.1210526 271.006383,70.0894737 C271.006383,67.55 269.484043,66.0263158 266.946809,66.0263158 L266.946809,66.0263158 L266.946809,66.0263158 Z M283.185106,82.2789474 C280.647872,82.2789474 279.125532,84.3105263 279.125532,86.3421053 C279.125532,88.8815789 280.647872,90.4052632 283.185106,90.4052632 C285.72234,90.4052632 287.244681,88.3736842 287.244681,86.3421053 C287.752128,84.3105263 285.72234,82.2789474 283.185106,82.2789474 L283.185106,82.2789474 L283.185106,82.2789474 Z M299.930851,82.2789474 C297.393617,82.2789474 295.871277,84.3105263 295.871277,86.3421053 C295.871277,88.8815789 297.901064,90.4052632 299.930851,90.4052632 C301.960638,90.4052632 303.990426,88.3736842 303.990426,86.3421053 C303.990426,84.3105263 301.960638,82.2789474 299.930851,82.2789474 L299.930851,82.2789474 L299.930851,82.2789474 Z M217.724468,82.2789474 C215.187234,82.2789474 213.664894,84.3105263 213.664894,86.3421053 C213.664894,88.8815789 215.187234,90.4052632 217.724468,90.4052632 C220.261702,90.4052632 221.784043,88.3736842 221.784043,86.3421053 C221.784043,84.3105263 220.261702,82.2789474 217.724468,82.2789474 L217.724468,82.2789474 L217.724468,82.2789474 Z M233.962766,82.2789474 C231.425532,82.2789474 229.903191,84.3105263 229.903191,86.3421053 C229.903191,88.8815789 231.425532,90.4052632 233.962766,90.4052632 C236.5,90.4052632 238.02234,88.3736842 238.02234,86.3421053 C238.529787,84.3105263 236.5,82.2789474 233.962766,82.2789474 L233.962766,82.2789474 L233.962766,82.2789474 Z M250.708511,82.2789474 C248.171277,82.2789474 246.648936,84.3105263 246.648936,86.3421053 C246.648936,88.8815789 248.678723,90.4052632 250.708511,90.4052632 C252.738298,90.4052632 254.768085,88.3736842 254.768085,86.3421053 C254.768085,84.3105263 252.738298,82.2789474 250.708511,82.2789474 L250.708511,82.2789474 L250.708511,82.2789474 Z M266.946809,82.2789474 C264.917021,82.2789474 262.887234,84.3105263 262.887234,86.3421053 C262.887234,88.8815789 264.917021,90.4052632 266.946809,90.4052632 C269.484043,90.4052632 271.006383,88.3736842 271.006383,86.3421053 C271.006383,84.3105263 269.484043,82.2789474 266.946809,82.2789474 L266.946809,82.2789474 L266.946809,82.2789474 Z M283.185106,98.5315789 C280.647872,98.5315789 279.125532,100.563158 279.125532,102.594737 C279.125532,105.134211 280.647872,106.657895 283.185106,106.657895 C285.72234,106.657895 287.244681,104.626316 287.244681,102.594737 C287.752128,100.055263 285.72234,98.5315789 283.185106,98.5315789 L283.185106,98.5315789 L283.185106,98.5315789 Z M201.48617,98.5315789 C199.456383,98.5315789 197.426596,100.563158 197.426596,102.594737 C197.426596,105.134211 199.456383,106.657895 201.48617,106.657895 C204.023404,106.657895 206.053191,104.626316 206.053191,102.594737 C205.545745,100.563158 203.515957,98.5315789 201.48617,98.5315789 L201.48617,98.5315789 L201.48617,98.5315789 Z M217.724468,98.5315789 C215.187234,98.5315789 213.664894,100.563158 213.664894,102.594737 C213.664894,105.134211 215.187234,106.657895 217.724468,106.657895 C220.261702,106.657895 221.784043,104.626316 221.784043,102.594737 C221.784043,100.563158 220.261702,98.5315789 217.724468,98.5315789 L217.724468,98.5315789 L217.724468,98.5315789 Z M233.962766,98.5315789 C231.425532,98.5315789 229.903191,100.563158 229.903191,102.594737 C229.903191,105.134211 231.425532,106.657895 233.962766,106.657895 C236.5,106.657895 238.02234,104.626316 238.02234,102.594737 C238.529787,100.563158 236.5,98.5315789 233.962766,98.5315789 L233.962766,98.5315789 L233.962766,98.5315789 Z M250.708511,98.5315789 C248.171277,98.5315789 246.648936,100.563158 246.648936,102.594737 C246.648936,105.134211 248.678723,106.657895 250.708511,106.657895 C252.738298,106.657895 254.768085,104.626316 254.768085,102.594737 C254.768085,100.563158 252.738298,98.5315789 250.708511,98.5315789 L250.708511,98.5315789 L250.708511,98.5315789 Z M266.946809,98.5315789 C264.917021,98.5315789 262.887234,100.563158 262.887234,102.594737 C262.887234,105.134211 264.917021,106.657895 266.946809,106.657895 C269.484043,106.657895 271.006383,104.626316 271.006383,102.594737 C271.006383,100.563158 269.484043,98.5315789 266.946809,98.5315789 L266.946809,98.5315789 L266.946809,98.5315789 Z M233.962766,115.292105 C231.425532,115.292105 229.903191,116.815789 229.903191,119.355263 C229.903191,121.894737 231.425532,123.418421 233.962766,123.418421 C236.5,123.418421 238.02234,121.386842 238.02234,119.355263 C238.02234,117.323684 236.5,115.292105 233.962766,115.292105 L233.962766,115.292105 L233.962766,115.292105 Z M250.708511,115.292105 C248.171277,115.292105 246.648936,116.815789 246.648936,119.355263 C246.648936,121.894737 248.678723,123.418421 250.708511,123.418421 C252.738298,123.418421 254.768085,121.386842 254.768085,119.355263 C254.768085,117.323684 252.738298,115.292105 250.708511,115.292105 L250.708511,115.292105 L250.708511,115.292105 Z M266.946809,115.292105 C264.917021,115.292105 262.887234,116.815789 262.887234,119.355263 C262.887234,121.894737 264.917021,123.418421 266.946809,123.418421 C269.484043,123.418421 271.006383,121.386842 271.006383,119.355263 C271.006383,117.323684 269.484043,115.292105 266.946809,115.292105 L266.946809,115.292105 L266.946809,115.292105 Z M152.26383,131.544737 C149.726596,131.544737 148.204255,133.576316 148.204255,135.607895 C148.204255,137.639474 149.726596,139.671053 152.26383,139.671053 C154.801064,139.671053 156.323404,137.639474 156.323404,135.607895 C156.323404,133.068421 154.293617,131.544737 152.26383,131.544737 L152.26383,131.544737 L152.26383,131.544737 Z M168.502128,131.544737 C165.964894,131.544737 164.442553,133.576316 164.442553,135.607895 C164.442553,137.639474 166.47234,139.671053 168.502128,139.671053 C170.531915,139.671053 172.561702,137.639474 172.561702,135.607895 C172.561702,133.068421 171.039362,131.544737 168.502128,131.544737 L168.502128,131.544737 L168.502128,131.544737 Z M185.247872,131.544737 C182.710638,131.544737 181.188298,133.576316 181.188298,135.607895 C181.188298,137.639474 183.218085,139.671053 185.247872,139.671053 C187.27766,139.671053 189.307447,137.639474 189.307447,135.607895 C189.307447,133.068421 187.27766,131.544737 185.247872,131.544737 L185.247872,131.544737 L185.247872,131.544737 Z M201.48617,131.544737 C199.456383,131.544737 197.426596,133.576316 197.426596,135.607895 C197.426596,137.639474 199.456383,139.671053 201.48617,139.671053 C204.023404,139.671053 206.053191,137.639474 206.053191,135.607895 C205.545745,133.068421 203.515957,131.544737 201.48617,131.544737 L201.48617,131.544737 L201.48617,131.544737 Z M217.724468,131.544737 C215.187234,131.544737 213.664894,133.576316 213.664894,135.607895 C213.664894,137.639474 215.187234,139.671053 217.724468,139.671053 C220.261702,139.671053 221.784043,137.639474 221.784043,135.607895 C221.784043,133.068421 220.261702,131.544737 217.724468,131.544737 L217.724468,131.544737 L217.724468,131.544737 Z M233.962766,131.544737 C231.425532,131.544737 229.903191,133.576316 229.903191,135.607895 C229.903191,137.639474 231.425532,139.671053 233.962766,139.671053 C236.5,139.671053 238.02234,137.639474 238.02234,135.607895 C238.529787,133.068421 236.5,131.544737 233.962766,131.544737 L233.962766,131.544737 L233.962766,131.544737 Z M250.708511,131.544737 C248.171277,131.544737 246.648936,133.576316 246.648936,135.607895 C246.648936,137.639474 248.678723,139.671053 250.708511,139.671053 C252.738298,139.671053 254.768085,137.639474 254.768085,135.607895 C254.768085,133.068421 252.738298,131.544737 250.708511,131.544737 L250.708511,131.544737 L250.708511,131.544737 Z M135.518085,147.797368 C133.488298,147.797368 131.458511,149.828947 131.458511,151.860526 C131.458511,154.4 133.488298,155.923684 135.518085,155.923684 C138.055319,155.923684 139.57766,153.892105 139.57766,151.860526 C140.085106,149.828947 138.055319,147.797368 135.518085,147.797368 L135.518085,147.797368 L135.518085,147.797368 Z M152.26383,147.797368 C149.726596,147.797368 148.204255,149.828947 148.204255,151.860526 C148.204255,154.4 149.726596,155.923684 152.26383,155.923684 C154.801064,155.923684 156.323404,153.892105 156.323404,151.860526 C156.323404,149.828947 154.293617,147.797368 152.26383,147.797368 L152.26383,147.797368 L152.26383,147.797368 Z M168.502128,147.797368 C165.964894,147.797368 164.442553,149.828947 164.442553,151.860526 C164.442553,154.4 166.47234,155.923684 168.502128,155.923684 C170.531915,155.923684 172.561702,153.892105 172.561702,151.860526 C172.561702,149.828947 171.039362,147.797368 168.502128,147.797368 L168.502128,147.797368 L168.502128,147.797368 Z M185.247872,147.797368 C182.710638,147.797368 181.188298,149.828947 181.188298,151.860526 C181.188298,154.4 183.218085,155.923684 185.247872,155.923684 C187.27766,155.923684 189.307447,153.892105 189.307447,151.860526 C189.307447,149.828947 187.27766,147.797368 185.247872,147.797368 L185.247872,147.797368 L185.247872,147.797368 Z M201.48617,147.797368 C199.456383,147.797368 197.426596,149.828947 197.426596,151.860526 C197.426596,154.4 199.456383,155.923684 201.48617,155.923684 C204.023404,155.923684 206.053191,153.892105 206.053191,151.860526 C205.545745,149.828947 203.515957,147.797368 201.48617,147.797368 L201.48617,147.797368 L201.48617,147.797368 Z M233.962766,147.797368 C231.425532,147.797368 229.903191,149.828947 229.903191,151.860526 C229.903191,154.4 231.425532,155.923684 233.962766,155.923684 C236.5,155.923684 238.02234,153.892105 238.02234,151.860526 C238.529787,149.828947 236.5,147.797368 233.962766,147.797368 L233.962766,147.797368 L233.962766,147.797368 Z M135.518085,164.05 C133.488298,164.05 131.458511,166.081579 131.458511,168.113158 C131.458511,170.652632 133.488298,172.176316 135.518085,172.176316 C138.055319,172.176316 139.57766,170.652632 139.57766,168.113158 C140.085106,166.081579 138.055319,164.05 135.518085,164.05 L135.518085,164.05 L135.518085,164.05 Z M152.26383,164.05 C149.726596,164.05 148.204255,166.081579 148.204255,168.113158 C148.204255,170.652632 149.726596,172.176316 152.26383,172.176316 C154.801064,172.176316 156.323404,170.652632 156.323404,168.113158 C156.323404,166.081579 154.293617,164.05 152.26383,164.05 L152.26383,164.05 L152.26383,164.05 Z M168.502128,164.05 C165.964894,164.05 164.442553,166.081579 164.442553,168.113158 C164.442553,170.652632 166.47234,172.176316 168.502128,172.176316 C170.531915,172.176316 172.561702,170.652632 172.561702,168.113158 C172.561702,166.081579 171.039362,164.05 168.502128,164.05 L168.502128,164.05 L168.502128,164.05 Z M185.247872,164.05 C182.710638,164.05 181.188298,166.081579 181.188298,168.113158 C181.188298,170.652632 183.218085,172.176316 185.247872,172.176316 C187.27766,172.176316 189.307447,170.652632 189.307447,168.113158 C189.307447,166.081579 187.27766,164.05 185.247872,164.05 L185.247872,164.05 L185.247872,164.05 Z M103.041489,180.810526 C100.504255,180.810526 98.9819149,182.842105 98.9819149,184.873684 C98.9819149,187.413158 101.011702,188.936842 103.041489,188.936842 C105.071277,188.936842 107.101064,187.413158 107.101064,184.873684 C107.101064,182.334211 105.578723,180.810526 103.041489,180.810526 L103.041489,180.810526 L103.041489,180.810526 Z M119.279787,180.810526 C116.742553,180.810526 115.220213,182.842105 115.220213,184.873684 C115.220213,187.413158 116.742553,188.936842 119.279787,188.936842 C121.817021,188.936842 123.339362,187.413158 123.339362,184.873684 C123.339362,182.334211 121.817021,180.810526 119.279787,180.810526 L119.279787,180.810526 L119.279787,180.810526 Z M135.518085,180.810526 C133.488298,180.810526 131.458511,182.842105 131.458511,184.873684 C131.458511,187.413158 133.488298,188.936842 135.518085,188.936842 C138.055319,188.936842 139.57766,187.413158 139.57766,184.873684 C140.085106,182.334211 138.055319,180.810526 135.518085,180.810526 L135.518085,180.810526 L135.518085,180.810526 Z M152.26383,180.810526 C149.726596,180.810526 148.204255,182.842105 148.204255,184.873684 C148.204255,187.413158 149.726596,188.936842 152.26383,188.936842 C154.801064,188.936842 156.323404,187.413158 156.323404,184.873684 C156.323404,182.334211 154.293617,180.810526 152.26383,180.810526 L152.26383,180.810526 L152.26383,180.810526 Z M168.502128,180.810526 C165.964894,180.810526 164.442553,182.842105 164.442553,184.873684 C164.442553,187.413158 166.47234,188.936842 168.502128,188.936842 C170.531915,188.936842 172.561702,187.413158 172.561702,184.873684 C172.561702,182.334211 171.039362,180.810526 168.502128,180.810526 L168.502128,180.810526 L168.502128,180.810526 Z M86.8031915,197.063158 C84.7734043,197.063158 82.743617,199.094737 82.743617,201.126316 C82.743617,203.157895 84.7734043,205.189474 86.8031915,205.189474 C89.3404255,205.189474 90.862766,203.157895 90.862766,201.126316 C90.3553191,198.586842 88.8329787,197.063158 86.8031915,197.063158 L86.8031915,197.063158 L86.8031915,197.063158 Z M70.0574468,197.063158 C67.5202128,197.063158 65.9978723,199.094737 65.9978723,201.126316 C65.9978723,203.157895 68.0276596,205.189474 70.0574468,205.189474 C72.087234,205.189474 74.1170213,203.157895 74.1170213,201.126316 C74.1170213,199.094737 72.087234,197.063158 70.0574468,197.063158 L70.0574468,197.063158 L70.0574468,197.063158 Z M103.041489,197.063158 C100.504255,197.063158 98.9819149,199.094737 98.9819149,201.126316 C98.9819149,203.157895 101.011702,205.189474 103.041489,205.189474 C105.071277,205.189474 107.101064,203.157895 107.101064,201.126316 C107.101064,199.094737 105.578723,197.063158 103.041489,197.063158 L103.041489,197.063158 L103.041489,197.063158 Z M119.279787,197.063158 C116.742553,197.063158 115.220213,199.094737 115.220213,201.126316 C115.220213,203.157895 116.742553,205.189474 119.279787,205.189474 C121.817021,205.189474 123.339362,203.157895 123.339362,201.126316 C123.339362,199.094737 121.817021,197.063158 119.279787,197.063158 L119.279787,197.063158 L119.279787,197.063158 Z M135.518085,197.063158 C133.488298,197.063158 131.458511,199.094737 131.458511,201.126316 C131.458511,203.157895 133.488298,205.189474 135.518085,205.189474 C138.055319,205.189474 139.57766,203.157895 139.57766,201.126316 C140.085106,199.094737 138.055319,197.063158 135.518085,197.063158 L135.518085,197.063158 L135.518085,197.063158 Z M152.26383,197.063158 C149.726596,197.063158 148.204255,199.094737 148.204255,201.126316 C148.204255,203.157895 149.726596,205.189474 152.26383,205.189474 C154.801064,205.189474 156.323404,203.157895 156.323404,201.126316 C156.323404,199.094737 154.293617,197.063158 152.26383,197.063158 L152.26383,197.063158 L152.26383,197.063158 Z M168.502128,197.063158 C165.964894,197.063158 164.442553,199.094737 164.442553,201.126316 C164.442553,203.157895 166.47234,205.189474 168.502128,205.189474 C170.531915,205.189474 172.561702,203.157895 172.561702,201.126316 C172.561702,199.094737 171.039362,197.063158 168.502128,197.063158 L168.502128,197.063158 L168.502128,197.063158 Z M86.8031915,213.315789 C84.7734043,213.315789 82.743617,215.347368 82.743617,217.378947 C82.743617,219.918421 84.7734043,221.442105 86.8031915,221.442105 C89.3404255,221.442105 90.862766,219.410526 90.862766,217.378947 C90.3553191,215.347368 88.8329787,213.315789 86.8031915,213.315789 L86.8031915,213.315789 L86.8031915,213.315789 Z M37.5808511,213.315789 C35.043617,213.315789 33.5212766,215.347368 33.5212766,217.378947 C33.5212766,219.918421 35.043617,221.442105 37.5808511,221.442105 C40.1180851,221.442105 41.6404255,219.918421 41.6404255,217.378947 C41.6404255,215.347368 39.6106383,213.315789 37.5808511,213.315789 L37.5808511,213.315789 L37.5808511,213.315789 Z M53.8191489,213.315789 C51.2819149,213.315789 49.7595745,215.347368 49.7595745,217.378947 C49.7595745,219.918421 51.2819149,221.442105 53.8191489,221.442105 C56.356383,221.442105 57.8787234,219.918421 57.8787234,217.378947 C57.8787234,215.347368 55.8489362,213.315789 53.8191489,213.315789 L53.8191489,213.315789 L53.8191489,213.315789 Z M70.0574468,213.315789 C67.5202128,213.315789 65.9978723,215.347368 65.9978723,217.378947 C65.9978723,219.918421 68.0276596,221.442105 70.0574468,221.442105 C72.087234,221.442105 74.1170213,219.918421 74.1170213,217.378947 C74.1170213,215.347368 72.087234,213.315789 70.0574468,213.315789 L70.0574468,213.315789 L70.0574468,213.315789 Z M103.041489,213.823684 C100.504255,213.823684 98.9819149,215.347368 98.9819149,217.886842 C98.9819149,220.426316 101.011702,221.95 103.041489,221.95 C105.071277,221.95 107.101064,220.426316 107.101064,217.886842 C107.101064,215.347368 105.578723,213.823684 103.041489,213.823684 L103.041489,213.823684 L103.041489,213.823684 Z M119.279787,213.823684 C116.742553,213.823684 115.220213,215.347368 115.220213,217.886842 C115.220213,220.426316 116.742553,221.95 119.279787,221.95 C121.817021,221.95 123.339362,220.426316 123.339362,217.886842 C123.339362,215.347368 121.817021,213.823684 119.279787,213.823684 L119.279787,213.823684 L119.279787,213.823684 Z M135.518085,213.823684 C133.488298,213.823684 131.458511,215.347368 131.458511,217.886842 C131.458511,220.426316 133.488298,221.95 135.518085,221.95 C138.055319,221.95 139.57766,220.426316 139.57766,217.886842 C140.085106,215.347368 138.055319,213.823684 135.518085,213.823684 L135.518085,213.823684 L135.518085,213.823684 Z M86.8031915,229.568421 C84.7734043,229.568421 82.743617,231.6 82.743617,233.631579 C82.743617,236.171053 84.7734043,237.694737 86.8031915,237.694737 C89.3404255,237.694737 90.862766,236.171053 90.862766,233.631579 C90.3553191,231.6 88.8329787,229.568421 86.8031915,229.568421 L86.8031915,229.568421 L86.8031915,229.568421 Z M20.8351064,230.076316 C18.8053191,230.076316 16.7755319,231.6 16.7755319,234.139474 C16.7755319,236.678947 18.8053191,238.202632 20.8351064,238.202632 C23.3723404,238.202632 24.8946809,236.678947 24.8946809,234.139474 C25.4021277,231.6 23.3723404,230.076316 20.8351064,230.076316 L20.8351064,230.076316 L20.8351064,230.076316 Z M37.5808511,230.076316 C35.043617,230.076316 33.5212766,231.6 33.5212766,234.139474 C33.5212766,236.678947 35.043617,238.202632 37.5808511,238.202632 C40.1180851,238.202632 41.6404255,236.678947 41.6404255,234.139474 C41.6404255,231.6 39.6106383,230.076316 37.5808511,230.076316 L37.5808511,230.076316 L37.5808511,230.076316 Z M53.8191489,230.076316 C51.2819149,230.076316 49.7595745,231.6 49.7595745,234.139474 C49.7595745,236.678947 51.2819149,238.202632 53.8191489,238.202632 C56.356383,238.202632 57.8787234,236.678947 57.8787234,234.139474 C57.8787234,231.6 55.8489362,230.076316 53.8191489,230.076316 L53.8191489,230.076316 L53.8191489,230.076316 Z M70.0574468,230.076316 C67.5202128,230.076316 65.9978723,231.6 65.9978723,234.139474 C65.9978723,236.678947 68.0276596,238.202632 70.0574468,238.202632 C72.087234,238.202632 74.1170213,236.678947 74.1170213,234.139474 C74.1170213,231.6 72.087234,230.076316 70.0574468,230.076316 L70.0574468,230.076316 L70.0574468,230.076316 Z M103.041489,230.076316 C100.504255,230.076316 98.9819149,231.6 98.9819149,234.139474 C98.9819149,236.678947 101.011702,238.202632 103.041489,238.202632 C105.071277,238.202632 107.101064,236.678947 107.101064,234.139474 C107.101064,231.6 105.578723,230.076316 103.041489,230.076316 L103.041489,230.076316 L103.041489,230.076316 Z M119.279787,230.076316 C116.742553,230.076316 115.220213,231.6 115.220213,234.139474 C115.220213,236.678947 116.742553,238.202632 119.279787,238.202632 C121.817021,238.202632 123.339362,236.678947 123.339362,234.139474 C123.339362,231.6 121.817021,230.076316 119.279787,230.076316 L119.279787,230.076316 L119.279787,230.076316 Z M86.8031915,246.328947 C84.7734043,246.328947 82.743617,247.852632 82.743617,250.392105 C82.743617,252.931579 84.7734043,254.455263 86.8031915,254.455263 C89.3404255,254.455263 90.862766,252.931579 90.862766,250.392105 C90.3553191,247.852632 88.8329787,246.328947 86.8031915,246.328947 L86.8031915,246.328947 L86.8031915,246.328947 Z M4.59680851,246.328947 C2.05957447,246.328947 0.029787234,247.852632 0.029787234,250.392105 C0.029787234,252.423684 2.05957447,254.455263 4.59680851,254.455263 C6.62659574,254.455263 8.65638298,252.423684 8.65638298,250.392105 C8.65638298,248.360526 7.13404255,246.328947 4.59680851,246.328947 L4.59680851,246.328947 L4.59680851,246.328947 Z M20.8351064,246.328947 C18.8053191,246.328947 16.7755319,247.852632 16.7755319,250.392105 C16.7755319,252.423684 18.8053191,254.455263 20.8351064,254.455263 C23.3723404,254.455263 24.8946809,252.423684 24.8946809,250.392105 C25.4021277,248.360526 23.3723404,246.328947 20.8351064,246.328947 L20.8351064,246.328947 L20.8351064,246.328947 Z M37.5808511,246.328947 C35.043617,246.328947 33.5212766,247.852632 33.5212766,250.392105 C33.5212766,252.423684 35.043617,254.455263 37.5808511,254.455263 C40.1180851,254.455263 41.6404255,252.423684 41.6404255,250.392105 C41.6404255,248.360526 39.6106383,246.328947 37.5808511,246.328947 L37.5808511,246.328947 L37.5808511,246.328947 Z M53.8191489,246.328947 C51.2819149,246.328947 49.7595745,247.852632 49.7595745,250.392105 C49.7595745,252.423684 51.2819149,254.455263 53.8191489,254.455263 C56.356383,254.455263 57.8787234,252.423684 57.8787234,250.392105 C57.8787234,248.360526 55.8489362,246.328947 53.8191489,246.328947 L53.8191489,246.328947 L53.8191489,246.328947 Z M70.0574468,246.328947 C67.5202128,246.328947 65.9978723,247.852632 65.9978723,250.392105 C65.9978723,252.423684 68.0276596,254.455263 70.0574468,254.455263 C72.087234,254.455263 74.1170213,252.423684 74.1170213,250.392105 C74.1170213,248.360526 72.087234,246.328947 70.0574468,246.328947 L70.0574468,246.328947 L70.0574468,246.328947 Z M103.041489,246.328947 C100.504255,246.328947 98.9819149,247.852632 98.9819149,250.392105 C98.9819149,252.423684 101.011702,254.455263 103.041489,254.455263 C105.071277,254.455263 107.101064,252.423684 107.101064,250.392105 C107.101064,248.360526 105.578723,246.328947 103.041489,246.328947 L103.041489,246.328947 L103.041489,246.328947 Z M119.279787,246.328947 C116.742553,246.328947 115.220213,247.852632 115.220213,250.392105 C115.220213,252.423684 116.742553,254.455263 119.279787,254.455263 C121.817021,254.455263 123.339362,252.423684 123.339362,250.392105 C123.339362,248.360526 121.817021,246.328947 119.279787,246.328947 L119.279787,246.328947 L119.279787,246.328947 Z M86.8031915,262.581579 C84.7734043,262.581579 82.743617,264.613158 82.743617,266.644737 C82.743617,268.676316 84.7734043,270.707895 86.8031915,270.707895 C89.3404255,270.707895 90.862766,268.676316 90.862766,266.644737 C90.3553191,264.613158 88.8329787,262.581579 86.8031915,262.581579 L86.8031915,262.581579 L86.8031915,262.581579 Z M37.5808511,262.581579 C35.043617,262.581579 33.5212766,264.613158 33.5212766,266.644737 C33.5212766,269.184211 35.043617,270.707895 37.5808511,270.707895 C40.1180851,270.707895 41.6404255,268.676316 41.6404255,266.644737 C41.6404255,264.613158 39.6106383,262.581579 37.5808511,262.581579 L37.5808511,262.581579 L37.5808511,262.581579 Z M53.8191489,262.581579 C51.2819149,262.581579 49.7595745,264.613158 49.7595745,266.644737 C49.7595745,269.184211 51.2819149,270.707895 53.8191489,270.707895 C56.356383,270.707895 57.8787234,268.676316 57.8787234,266.644737 C57.8787234,264.613158 55.8489362,262.581579 53.8191489,262.581579 L53.8191489,262.581579 L53.8191489,262.581579 Z M70.0574468,262.581579 C67.5202128,262.581579 65.9978723,264.613158 65.9978723,266.644737 C65.9978723,269.184211 68.0276596,270.707895 70.0574468,270.707895 C72.087234,270.707895 74.1170213,268.676316 74.1170213,266.644737 C74.1170213,264.613158 72.087234,262.581579 70.0574468,262.581579 L70.0574468,262.581579 L70.0574468,262.581579 Z M37.5808511,279.342105 C35.043617,279.342105 33.5212766,280.865789 33.5212766,283.405263 C33.5212766,285.944737 35.043617,287.468421 37.5808511,287.468421 C40.1180851,287.468421 41.6404255,285.944737 41.6404255,283.405263 C41.6404255,280.865789 39.6106383,279.342105 37.5808511,279.342105 L37.5808511,279.342105 L37.5808511,279.342105 Z M53.8191489,279.342105 C51.2819149,279.342105 49.7595745,280.865789 49.7595745,283.405263 C49.7595745,285.944737 51.2819149,287.468421 53.8191489,287.468421 C56.356383,287.468421 57.8787234,285.944737 57.8787234,283.405263 C57.8787234,280.865789 55.8489362,279.342105 53.8191489,279.342105 L53.8191489,279.342105 L53.8191489,279.342105 Z M229.903191,70.0894737 C229.903191,72.6289474 231.425532,74.1526316 233.962766,74.1526316 C236.5,74.1526316 238.02234,72.1210526 238.02234,70.0894737 C238.529787,67.55 236.5,66.0263158 233.962766,66.0263158 C231.425532,66.0263158 229.903191,67.55 229.903191,70.0894737 Z" id="Shape"></path>
                </g>
                <text id="KIA-ORA" font-family="Tillana-SemiBold, Tillana" font-size="20" font-weight="500" fill="#EDE719">
                    <tspan x="126.46" y="108">Kia Ora! —</tspan>
                </text>
                <path d="M247.426596,101.076316 C247.426596,103.615789 249.456383,105.139474 251.48617,105.139474 C254.023404,105.139474 256.053191,103.107895 256.053191,101.076316 C255.545745,98.5368421 253.515957,97.0131579 251.48617,97.0131579 C249.456383,97.0131579 247.426596,99.0447368 247.426596,101.076316 Z" id="Combined-Shape" fill="#EDE719"></path>
            </g>
        </g>
    </g>
</svg>