<?xml version="1.0" encoding="UTF-8" standalone="no"?>
<svg width="419px" height="416px" viewBox="0 0 419 416" version="1.1" xmlns="http://www.w3.org/2000/svg" xmlns:xlink="http://www.w3.org/1999/xlink">
    <!-- Generator: Sketch 39.1 (31720) - http://www.bohemiancoding.com/sketch -->
    <title>Linkedin</title>
    <desc>Created with Sketch.</desc>
    <defs></defs>
    <g id="Page-1" stroke="none" stroke-width="1" fill="none" fill-rule="evenodd">
        <g id="Portfolio@2x" transform="translate(-881.000000, -2518.000000)">
            <g id="Group-6" transform="translate(128.000000, 2518.000000)">
                <g id="Linkedin" transform="translate(753.000000, 0.000000)">
                    <path d="M2.84217094e-14,207.564291 C2.84217094e-14,337.291973 77.7679627,415.128583 207.381234,415.128583 C336.994505,415.128583 414.762468,311.346437 414.762468,207.564291 C440.685122,77.8366093 336.994505,0 207.381234,0 C77.7679627,0 2.84217094e-14,77.8366093 2.84217094e-14,207.564291 Z" id="Path" fill="#0C50BF"></path>
                    <g id="DOTS" transform="translate(78.000000, 80.000000)" fill="#FFFFFF">
                        <path d="M5.05957447,60 C2.52234043,60 1,62.0315789 1,64.0631579 C1,66.6026316 3.02978723,68.1263158 5.05957447,68.1263158 C7.0893617,68.1263158 9.11914894,66.6026316 9.11914894,64.0631579 C9.11914894,61.5236842 7.59680851,60 5.05957447,60 L5.05957447,60 L5.05957447,60 Z" id="Path"></path>
                        <path d="M22.0595745,60 C19.5223404,60 18,62.0315789 18,64.0631579 C18,66.6026316 19.5223404,68.1263158 22.0595745,68.1263158 C24.5968085,68.1263158 26.1191489,66.6026316 26.1191489,64.0631579 C26.1191489,61.5236842 24.5968085,60 22.0595745,60 L22.0595745,60 L22.0595745,60 Z" id="Path"></path>
                        <path d="M38.0595745,60 C36.0297872,60 34,62.0315789 34,64.0631579 C34,66.6026316 36.0297872,68.1263158 38.0595745,68.1263158 C40.5968085,68.1263158 42.1191489,66.6026316 42.1191489,64.0631579 C42.6265957,61.5236842 40.5968085,60 38.0595745,60 L38.0595745,60 L38.0595745,60 Z" id="Path"></path>
                        <path d="M55.0595745,60 C52.5223404,60 51,62.0315789 51,64.0631579 C51,66.6026316 52.5223404,68.1263158 55.0595745,68.1263158 C57.5968085,68.1263158 59.1191489,66.6026316 59.1191489,64.0631579 C59.1191489,61.5236842 57.0893617,60 55.0595745,60 L55.0595745,60 L55.0595745,60 Z" id="Path"></path>
                        <path d="M71.0595745,60 C68.5223404,60 67,62.0315789 67,64.0631579 C67,66.6026316 69.0297872,68.1263158 71.0595745,68.1263158 C73.0893617,68.1263158 75.1191489,66.6026316 75.1191489,64.0631579 C75.1191489,61.5236842 73.5968085,60 71.0595745,60 L71.0595745,60 L71.0595745,60 Z" id="Path"></path>
                        <path d="M104.059574,80 C102.029787,80 100,82.0315789 100,84.0631579 C100,86.0947368 102.029787,88.1263158 104.059574,88.1263158 C106.596809,88.1263158 108.119149,86.0947368 108.119149,84.0631579 C107.611702,81.5236842 106.089362,80 104.059574,80 L104.059574,80 L104.059574,80 Z" id="Path"></path>
                        <path d="M87.0595745,80 C84.5223404,80 83,82.0315789 83,84.0631579 C83,86.0947368 85.0297872,88.1263158 87.0595745,88.1263158 C89.0893617,88.1263158 91.1191489,86.0947368 91.1191489,84.0631579 C91.1191489,82.0315789 89.0893617,80 87.0595745,80 L87.0595745,80 L87.0595745,80 Z" id="Path"></path>
                        <path d="M5.05957447,80 C2.52234043,80 1,82.0315789 1,84.0631579 C1,86.0947368 3.02978723,88.1263158 5.05957447,88.1263158 C7.0893617,88.1263158 9.11914894,86.0947368 9.11914894,84.0631579 C9.11914894,82.0315789 7.59680851,80 5.05957447,80 L5.05957447,80 L5.05957447,80 Z" id="Path"></path>
                        <path d="M22.0595745,80 C19.5223404,80 18,82.0315789 18,84.0631579 C18,86.0947368 19.5223404,88.1263158 22.0595745,88.1263158 C24.5968085,88.1263158 26.1191489,86.0947368 26.1191489,84.0631579 C26.1191489,82.0315789 24.5968085,80 22.0595745,80 L22.0595745,80 L22.0595745,80 Z" id="Path"></path>
                        <path d="M38.0595745,80 C36.0297872,80 34,82.0315789 34,84.0631579 C34,86.0947368 36.0297872,88.1263158 38.0595745,88.1263158 C40.5968085,88.1263158 42.1191489,86.0947368 42.1191489,84.0631579 C42.6265957,82.0315789 40.5968085,80 38.0595745,80 L38.0595745,80 L38.0595745,80 Z" id="Path"></path>
                        <path d="M55.0595745,80 C52.5223404,80 51,82.0315789 51,84.0631579 C51,86.0947368 52.5223404,88.1263158 55.0595745,88.1263158 C57.5968085,88.1263158 59.1191489,86.0947368 59.1191489,84.0631579 C59.1191489,82.0315789 57.0893617,80 55.0595745,80 L55.0595745,80 L55.0595745,80 Z" id="Path"></path>
                        <path d="M71.0595745,80 C68.5223404,80 67,82.0315789 67,84.0631579 C67,86.0947368 69.0297872,88.1263158 71.0595745,88.1263158 C73.0893617,88.1263158 75.1191489,86.0947368 75.1191489,84.0631579 C75.1191489,82.0315789 73.5968085,80 71.0595745,80 L71.0595745,80 L71.0595745,80 Z" id="Path"></path>
                        <path d="M70.9404255,139.873684 C68.4031915,139.873684 66.8808511,141.905263 66.8808511,143.936842 C66.8808511,146.476316 68.9106383,148 70.9404255,148 C72.9702128,148 75,146.476316 75,143.936842 C75,141.397368 73.4776596,139.873684 70.9404255,139.873684 L70.9404255,139.873684 L70.9404255,139.873684 Z" id="Path" transform="translate(70.940426, 143.936842) rotate(-180.000000) translate(-70.940426, -143.936842) "></path>
                        <path d="M53.9404255,139.873684 C51.4031915,139.873684 49.8808511,141.905263 49.8808511,143.936842 C49.8808511,146.476316 51.4031915,148 53.9404255,148 C56.4776596,148 58,146.476316 58,143.936842 C58,141.397368 56.4776596,139.873684 53.9404255,139.873684 L53.9404255,139.873684 L53.9404255,139.873684 Z" id="Path" transform="translate(53.940426, 143.936842) rotate(-180.000000) translate(-53.940426, -143.936842) "></path>
                        <path d="M37.8621462,139.873684 C35.8323589,139.873684 33.8025717,141.905263 33.8025717,143.936842 C33.8025717,146.476316 35.8323589,148 37.8621462,148 C40.3993802,148 41.9217206,146.476316 41.9217206,143.936842 C42.4291675,141.397368 40.3993802,139.873684 37.8621462,139.873684 L37.8621462,139.873684 L37.8621462,139.873684 Z" id="Path" transform="translate(37.901286, 143.936842) rotate(-180.000000) translate(-37.901286, -143.936842) "></path>
                        <path d="M20.9404255,139.873684 C18.4031915,139.873684 16.8808511,141.905263 16.8808511,143.936842 C16.8808511,146.476316 18.4031915,148 20.9404255,148 C23.4776596,148 25,146.476316 25,143.936842 C25,141.397368 22.9702128,139.873684 20.9404255,139.873684 L20.9404255,139.873684 L20.9404255,139.873684 Z" id="Path" transform="translate(20.940426, 143.936842) rotate(-180.000000) translate(-20.940426, -143.936842) "></path>
                        <path d="M4.94042553,139.873684 C2.40319149,139.873684 0.880851064,141.905263 0.880851064,143.936842 C0.880851064,146.476316 2.9106383,148 4.94042553,148 C6.97021277,148 9,146.476316 9,143.936842 C9,141.397368 7.47765957,139.873684 4.94042553,139.873684 L4.94042553,139.873684 L4.94042553,139.873684 Z" id="Path" transform="translate(4.940426, 143.936842) rotate(-180.000000) translate(-4.940426, -143.936842) "></path>
                        <path d="M6.05957447,179.747368 C3.52234043,179.747368 2,181.778947 2,183.810526 C2,185.842105 3.52234043,187.873684 6.05957447,187.873684 C8.59680851,187.873684 10.1191489,185.842105 10.1191489,183.810526 C10.1191489,181.271053 8.0893617,179.747368 6.05957447,179.747368 L6.05957447,179.747368 L6.05957447,179.747368 Z" id="Path"></path>
                        <path d="M22.0595745,179.747368 C19.5223404,179.747368 18,181.778947 18,183.810526 C18,185.842105 20.0297872,187.873684 22.0595745,187.873684 C24.0893617,187.873684 26.1191489,185.842105 26.1191489,183.810526 C26.1191489,181.271053 24.5968085,179.747368 22.0595745,179.747368 L22.0595745,179.747368 L22.0595745,179.747368 Z" id="Path"></path>
                        <path d="M39.0595745,179.747368 C36.5223404,179.747368 35,181.778947 35,183.810526 C35,185.842105 37.0297872,187.873684 39.0595745,187.873684 C41.0893617,187.873684 43.1191489,185.842105 43.1191489,183.810526 C43.1191489,181.271053 41.0893617,179.747368 39.0595745,179.747368 L39.0595745,179.747368 L39.0595745,179.747368 Z" id="Path"></path>
                        <path d="M55.0595745,179.747368 C53.0297872,179.747368 51,181.778947 51,183.810526 C51,185.842105 53.0297872,187.873684 55.0595745,187.873684 C57.5968085,187.873684 59.6265957,185.842105 59.6265957,183.810526 C59.1191489,181.271053 57.0893617,179.747368 55.0595745,179.747368 L55.0595745,179.747368 L55.0595745,179.747368 Z" id="Path"></path>
                        <path d="M72.0595745,179.747368 C69.5223404,179.747368 68,181.778947 68,183.810526 C68,185.842105 69.5223404,187.873684 72.0595745,187.873684 C74.5968085,187.873684 76.1191489,185.842105 76.1191489,183.810526 C76.1191489,181.271053 74.5968085,179.747368 72.0595745,179.747368 L72.0595745,179.747368 L72.0595745,179.747368 Z" id="Path"></path>
                        <path d="M88.0595745,179.747368 C85.5223404,179.747368 84,181.778947 84,183.810526 C84,185.842105 85.5223404,187.873684 88.0595745,187.873684 C90.5968085,187.873684 92.1191489,185.842105 92.1191489,183.810526 C92.6265957,181.271053 90.5968085,179.747368 88.0595745,179.747368 L88.0595745,179.747368 L88.0595745,179.747368 Z" id="Path"></path>
                        <path d="M105.059574,179.747368 C102.52234,179.747368 101,181.778947 101,183.810526 C101,185.842105 103.029787,187.873684 105.059574,187.873684 C107.089362,187.873684 109.119149,185.842105 109.119149,183.810526 C109.119149,181.271053 107.089362,179.747368 105.059574,179.747368 L105.059574,179.747368 L105.059574,179.747368 Z" id="Path"></path>
                        <path d="M5.94042553,119.873684 C3.9106383,119.873684 1.88085106,121.905263 1.88085106,123.936842 C1.88085106,125.968421 3.9106383,128 5.94042553,128 C8.47765957,128 10,125.968421 10,123.936842 C9.49255319,121.397368 7.97021277,119.873684 5.94042553,119.873684 L5.94042553,119.873684 L5.94042553,119.873684 Z" id="Path" transform="translate(5.940426, 123.936842) rotate(-180.000000) translate(-5.940426, -123.936842) "></path>
                        <path d="M22.9404255,119.873684 C20.4031915,119.873684 18.8808511,121.905263 18.8808511,123.936842 C18.8808511,125.968421 20.9106383,128 22.9404255,128 C24.9702128,128 27,125.968421 27,123.936842 C27,121.905263 24.9702128,119.873684 22.9404255,119.873684 L22.9404255,119.873684 L22.9404255,119.873684 Z" id="Path" transform="translate(22.940426, 123.936842) rotate(-180.000000) translate(-22.940426, -123.936842) "></path>
                        <path d="M104.940426,119.873684 C102.403191,119.873684 100.880851,121.905263 100.880851,123.936842 C100.880851,125.968421 102.910638,128 104.940426,128 C106.970213,128 109,125.968421 109,123.936842 C109,121.905263 107.47766,119.873684 104.940426,119.873684 L104.940426,119.873684 L104.940426,119.873684 Z" id="Path" transform="translate(104.940426, 123.936842) rotate(-180.000000) translate(-104.940426, -123.936842) "></path>
                        <path d="M87.9404255,119.873684 C85.4031915,119.873684 83.8808511,121.905263 83.8808511,123.936842 C83.8808511,125.968421 85.4031915,128 87.9404255,128 C90.4776596,128 92,125.968421 92,123.936842 C92,121.905263 90.4776596,119.873684 87.9404255,119.873684 L87.9404255,119.873684 L87.9404255,119.873684 Z" id="Path" transform="translate(87.940426, 123.936842) rotate(-180.000000) translate(-87.940426, -123.936842) "></path>
                        <path d="M71.8621462,119.873684 C69.8323589,119.873684 67.8025717,121.905263 67.8025717,123.936842 C67.8025717,125.968421 69.8323589,128 71.8621462,128 C74.3993802,128 75.9217206,125.968421 75.9217206,123.936842 C76.4291675,121.905263 74.3993802,119.873684 71.8621462,119.873684 L71.8621462,119.873684 L71.8621462,119.873684 Z" id="Path" transform="translate(71.901286, 123.936842) rotate(-180.000000) translate(-71.901286, -123.936842) "></path>
                        <path d="M54.9404255,119.873684 C52.4031915,119.873684 50.8808511,121.905263 50.8808511,123.936842 C50.8808511,125.968421 52.4031915,128 54.9404255,128 C57.4776596,128 59,125.968421 59,123.936842 C59,121.905263 56.9702128,119.873684 54.9404255,119.873684 L54.9404255,119.873684 L54.9404255,119.873684 Z" id="Path" transform="translate(54.940426, 123.936842) rotate(-180.000000) translate(-54.940426, -123.936842) "></path>
                        <path d="M38.9404255,119.873684 C36.4031915,119.873684 34.8808511,121.905263 34.8808511,123.936842 C34.8808511,125.968421 36.9106383,128 38.9404255,128 C40.9702128,128 43,125.968421 43,123.936842 C43,121.905263 41.4776596,119.873684 38.9404255,119.873684 L38.9404255,119.873684 L38.9404255,119.873684 Z" id="Path" transform="translate(38.940426, 123.936842) rotate(-180.000000) translate(-38.940426, -123.936842) "></path>
                        <path d="M120.059574,120 C117.52234,120 116,122.031579 116,124.063158 C116,126.602632 118.029787,128.126316 120.059574,128.126316 C122.089362,128.126316 124.119149,126.602632 124.119149,124.063158 C124.119149,121.523684 122.596809,120 120.059574,120 L120.059574,120 L120.059574,120 Z" id="Path"></path>
                        <path d="M137.059574,120 C134.52234,120 133,122.031579 133,124.063158 C133,126.602632 134.52234,128.126316 137.059574,128.126316 C139.596809,128.126316 141.119149,126.602632 141.119149,124.063158 C141.119149,121.523684 139.596809,120 137.059574,120 L137.059574,120 L137.059574,120 Z" id="Path"></path>
                        <path d="M185.059574,140 C183.029787,140 181,142.031579 181,144.063158 C181,146.094737 183.029787,148.126316 185.059574,148.126316 C187.596809,148.126316 189.119149,146.094737 189.119149,144.063158 C188.611702,141.523684 187.089362,140 185.059574,140 L185.059574,140 L185.059574,140 Z" id="Path"></path>
                        <path d="M168.059574,140 C165.52234,140 164,142.031579 164,144.063158 C164,146.094737 166.029787,148.126316 168.059574,148.126316 C170.089362,148.126316 172.119149,146.094737 172.119149,144.063158 C172.119149,142.031579 170.089362,140 168.059574,140 L168.059574,140 L168.059574,140 Z" id="Path"></path>
                        <path d="M86.0595745,140 C83.5223404,140 82,142.031579 82,144.063158 C82,146.094737 84.0297872,148.126316 86.0595745,148.126316 C88.0893617,148.126316 90.1191489,146.094737 90.1191489,144.063158 C90.1191489,142.031579 88.5968085,140 86.0595745,140 L86.0595745,140 L86.0595745,140 Z" id="Path"></path>
                        <path d="M103.059574,140 C100.52234,140 99,142.031579 99,144.063158 C99,146.094737 100.52234,148.126316 103.059574,148.126316 C105.596809,148.126316 107.119149,146.094737 107.119149,144.063158 C107.119149,142.031579 105.596809,140 103.059574,140 L103.059574,140 L103.059574,140 Z" id="Path"></path>
                        <path d="M119.059574,140 C117.029787,140 115,142.031579 115,144.063158 C115,146.094737 117.029787,148.126316 119.059574,148.126316 C121.596809,148.126316 123.119149,146.094737 123.119149,144.063158 C123.626596,142.031579 121.596809,140 119.059574,140 L119.059574,140 L119.059574,140 Z" id="Path"></path>
                        <path d="M136.059574,140 C133.52234,140 132,142.031579 132,144.063158 C132,146.094737 133.52234,148.126316 136.059574,148.126316 C138.596809,148.126316 140.119149,146.094737 140.119149,144.063158 C140.119149,142.031579 138.089362,140 136.059574,140 L136.059574,140 L136.059574,140 Z" id="Path"></path>
                        <path d="M152.059574,140 C149.52234,140 148,142.031579 148,144.063158 C148,146.094737 150.029787,148.126316 152.059574,148.126316 C154.089362,148.126316 156.119149,146.094737 156.119149,144.063158 C156.119149,142.031579 154.596809,140 152.059574,140 L152.059574,140 L152.059574,140 Z" id="Path"></path>
                        <path d="M54.2819149,0 C52.2521277,0 50.2223404,2.03157895 50.2223404,4.06315789 C50.2223404,6.60263158 52.2521277,8.12631579 54.2819149,8.12631579 C56.8191489,8.12631579 58.3414894,6.09473684 58.3414894,4.06315789 C57.8340426,2.03157895 56.3117021,0 54.2819149,0 L54.2819149,0 L54.2819149,0 Z" id="Path"></path>
                        <path d="M5.05957447,0 C2.52234043,0 1,2.03157895 1,4.06315789 C1,6.60263158 2.52234043,8.12631579 5.05957447,8.12631579 C7.59680851,8.12631579 9.11914894,6.60263158 9.11914894,4.06315789 C9.11914894,2.03157895 7.0893617,0 5.05957447,0 L5.05957447,0 L5.05957447,0 Z" id="Path"></path>
                        <path d="M21.2978723,0 C18.7606383,0 17.2382979,2.03157895 17.2382979,4.06315789 C17.2382979,6.60263158 18.7606383,8.12631579 21.2978723,8.12631579 C23.8351064,8.12631579 25.3574468,6.60263158 25.3574468,4.06315789 C25.3574468,2.03157895 23.3276596,0 21.2978723,0 L21.2978723,0 L21.2978723,0 Z" id="Path"></path>
                        <path d="M37.5361702,0 C34.9989362,0 33.4765957,2.03157895 33.4765957,4.06315789 C33.4765957,6.60263158 35.506383,8.12631579 37.5361702,8.12631579 C39.5659574,8.12631579 41.5957447,6.60263158 41.5957447,4.06315789 C41.5957447,2.03157895 39.5659574,0 37.5361702,0 L37.5361702,0 L37.5361702,0 Z" id="Path"></path>
                        <path d="M70.5202128,0.507894737 C67.9829787,0.507894737 66.4606383,2.03157895 66.4606383,4.57105263 C66.4606383,7.11052632 68.4904255,8.63421053 70.5202128,8.63421053 C72.55,8.63421053 74.5797872,7.11052632 74.5797872,4.57105263 C74.5797872,2.03157895 73.0574468,0.507894737 70.5202128,0.507894737 L70.5202128,0.507894737 L70.5202128,0.507894737 Z" id="Path"></path>
                        <path d="M86.7585106,0.507894737 C84.2212766,0.507894737 82.6989362,2.03157895 82.6989362,4.57105263 C82.6989362,7.11052632 84.2212766,8.63421053 86.7585106,8.63421053 C89.2957447,8.63421053 90.8180851,7.11052632 90.8180851,4.57105263 C90.8180851,2.03157895 89.2957447,0.507894737 86.7585106,0.507894737 L86.7585106,0.507894737 L86.7585106,0.507894737 Z" id="Path"></path>
                        <path d="M102.996809,0.507894737 C100.967021,0.507894737 98.937234,2.03157895 98.937234,4.57105263 C98.937234,7.11052632 100.967021,8.63421053 102.996809,8.63421053 C105.534043,8.63421053 107.056383,7.11052632 107.056383,4.57105263 C107.56383,2.03157895 105.534043,0.507894737 102.996809,0.507894737 L102.996809,0.507894737 L102.996809,0.507894737 Z" id="Path"></path>
                        <path d="M54.0595745,20 C52.0297872,20 50,22.0315789 50,24.0631579 C50,26.6026316 52.0297872,28.1263158 54.0595745,28.1263158 C56.5968085,28.1263158 58.1191489,26.6026316 58.1191489,24.0631579 C57.6117021,22.0315789 56.0893617,20 54.0595745,20 L54.0595745,20 L54.0595745,20 Z" id="Path"></path>
                        <path d="M5.05957447,20 C2.52234043,20 1,21.5236842 1,24.0631579 C1,26.6026316 2.52234043,28.1263158 5.05957447,28.1263158 C7.59680851,28.1263158 9.11914894,26.6026316 9.11914894,24.0631579 C9.11914894,21.5236842 7.0893617,20 5.05957447,20 L5.05957447,20 L5.05957447,20 Z" id="Path"></path>
                        <path d="M21.0595745,20 C18.5223404,20 17,21.5236842 17,24.0631579 C17,26.6026316 18.5223404,28.1263158 21.0595745,28.1263158 C23.5968085,28.1263158 25.1191489,26.6026316 25.1191489,24.0631579 C25.1191489,21.5236842 23.0893617,20 21.0595745,20 L21.0595745,20 L21.0595745,20 Z" id="Path"></path>
                        <path d="M37.0595745,20 C34.5223404,20 33,21.5236842 33,24.0631579 C33,26.6026316 35.0297872,28.1263158 37.0595745,28.1263158 C39.0893617,28.1263158 41.1191489,26.6026316 41.1191489,24.0631579 C41.1191489,21.5236842 39.0893617,20 37.0595745,20 L37.0595745,20 L37.0595745,20 Z" id="Path"></path>
                        <path d="M70.0595745,20 C67.5223404,20 66,21.5236842 66,24.0631579 C66,26.6026316 68.0297872,28.1263158 70.0595745,28.1263158 C72.0893617,28.1263158 74.1191489,26.6026316 74.1191489,24.0631579 C74.1191489,21.5236842 72.5968085,20 70.0595745,20 L70.0595745,20 L70.0595745,20 Z" id="Path"></path>
                        <path d="M87.0595745,20 C84.5223404,20 83,21.5236842 83,24.0631579 C83,26.6026316 84.5223404,28.1263158 87.0595745,28.1263158 C89.5968085,28.1263158 91.1191489,26.6026316 91.1191489,24.0631579 C91.1191489,21.5236842 89.5968085,20 87.0595745,20 L87.0595745,20 L87.0595745,20 Z" id="Path"></path>
                    </g>
                    <g id="In-White-0p5in-R" transform="translate(299.000000, 78.000000)" fill="#FFFFFF">
                        <path d="M34.0855556,34.0844444 L28.1533333,34.0844444 L28.1533333,24.8011111 C28.1533333,22.5877778 28.1155556,19.74 25.0711111,19.74 C21.9833333,19.74 21.5122222,22.1522222 21.5122222,24.6433333 L21.5122222,34.0844444 L15.5866667,34.0844444 L15.5866667,14.9955556 L21.2733333,14.9955556 L21.2733333,17.6055556 L21.3555556,17.6055556 C22.1466667,16.1044444 24.0822222,14.5222222 26.9677778,14.5222222 C32.9755556,14.5222222 34.0855556,18.4744444 34.0855556,23.6155556 L34.0855556,34.0844444 L34.0855556,34.0844444 Z M8.89777778,12.3877778 C6.99222222,12.3877778 5.45555556,10.8466667 5.45555556,8.94666667 C5.45555556,7.04777778 6.99222222,5.50666667 8.89777778,5.50666667 C10.7955556,5.50666667 12.3355556,7.04777778 12.3355556,8.94666667 C12.3355556,10.8466667 10.7955556,12.3877778 8.89777778,12.3877778 L8.89777778,12.3877778 Z M5.92666667,34.0844444 L11.8655556,34.0844444 L11.8655556,14.9955556 L5.92666667,14.9955556 L5.92666667,34.0844444 Z M37.04,0 L2.95,0 C1.32222222,0 0,1.29111111 0,2.88444444 L0,37.1133333 C0,38.7066667 1.32222222,40 2.95,40 L37.04,40 C38.6711111,40 39.9988889,38.7066667 39.9988889,37.1133333 L39.9988889,2.88444444 C39.9988889,1.29111111 38.6711111,0 37.04,0 L37.04,0 Z" id="Fill-4"></path>
                    </g>
                </g>
            </g>
        </g>
    </g>
</svg>